<svg width="116" height="41" viewBox="0 0 116 41" fill="none" xmlns="http://www.w3.org/2000/svg">
<path fill-rule="evenodd" clip-rule="evenodd" d="M116 4.25172C116 0.333676 111.143 -1.49107 108.563 1.45758L88.7869 24.0598C87.4173 25.6252 87.3842 27.9526 88.7089 29.5562L96.4249 38.8971C97.231 39.873 98.4306 40.438 99.6963 40.438H111.757C114.1 40.438 116 38.5382 116 36.1948V4.25172ZM101.25 30.4802C100.663 30.4802 100.347 31.1696 100.731 31.6138L102.053 33.1444C102.183 33.2952 102.373 33.3819 102.572 33.3819H111.597C111.975 33.3819 112.282 33.075 112.282 32.6964V31.1657C112.282 30.7871 111.975 30.4802 111.597 30.4802L101.25 30.4802ZM98.0961 25.0294C98.2264 24.8787 98.4157 24.792 98.615 24.792H111.597C111.975 24.792 112.282 25.0989 112.282 25.4775V27.0082C112.282 27.3868 111.975 27.6937 111.597 27.6937H97.293C96.7061 27.6937 96.3906 27.0043 96.7742 26.5601L98.0961 25.0294Z" fill="#373743"/>
<path d="M80.3677 16.875L72.488 28.0927C72.1923 28.5137 72.1955 29.0757 72.496 29.4933L80.3677 40.4328H85.2019L77.1363 29.5049C76.8245 29.0824 76.8212 28.5068 77.1281 28.0808L85.2019 16.875H80.3677Z" fill="#373743"/>
<path d="M47.3523 28.741C47.3523 35.6274 52.2776 40.4615 58.9816 40.4615C65.6399 40.4615 70.5652 35.6274 70.5652 28.741C70.5652 21.8546 65.6399 17.0205 58.9816 17.0205C52.2776 17.0205 47.3523 21.8546 47.3523 28.741ZM51.6848 28.741C51.6848 24.0893 54.6491 20.8513 58.9816 20.8513C63.2684 20.8513 66.2784 24.0893 66.2784 28.741C66.2784 33.3927 63.2684 36.6307 58.9816 36.6307C54.6491 36.6307 51.6848 33.3927 51.6848 28.741Z" fill="#373743"/>
<path d="M28.7668 40.3954C28.9575 40.3954 29.1121 40.2408 29.1121 40.0501V28.5837C29.1121 24.2512 31.4379 21.3781 35.4512 21.3781C38.7347 21.3781 40.8326 23.2023 40.8326 27.7172V40.3954H44.7741C44.9648 40.3954 45.1194 40.2408 45.1194 40.0501V26.7595C45.1194 21.0589 42.4287 17.4561 36.5457 17.4561C33.6081 17.4561 30.7395 18.1482 29.221 20.3178C29.1229 20.458 28.8856 20.4033 28.872 20.2327L28.7016 18.0945H24.8252V40.3954H28.7668Z" fill="#373743"/>
<path d="M11.082 40.3523C16.6002 40.3523 20.3398 37.6616 21.4344 32.8731H17.4211C16.6914 35.427 14.5024 36.7951 11.1732 36.7951C6.93196 36.7951 4.46929 34.1956 4.15006 29.4983L21.3888 29.4527V27.8565C21.3888 21.2438 17.2387 16.8657 10.8996 16.8657C4.42369 16.8657 0 21.6999 0 28.6774C0 35.6094 4.5149 40.3523 11.082 40.3523ZM10.8996 20.4685C14.6848 20.4685 17.1019 22.9312 17.1019 26.6252H4.24127C4.78853 22.7032 7.15999 20.4685 10.8996 20.4685Z" fill="#373743"/>
</svg>
