<svg width="20" height="18" viewBox="0 0 20 18" fill="none" xmlns="http://www.w3.org/2000/svg">
<path d="M18.1891 7.84596H4.33843L8.57772 2.75414C8.77595 2.51564 8.87132 2.20817 8.84285 1.89936C8.81438 1.59055 8.6644 1.3057 8.4259 1.10747C8.18741 0.909241 7.87994 0.813872 7.57113 0.842344C7.26232 0.870816 6.97746 1.0208 6.77923 1.25929L0.939992 8.26638C0.900706 8.32212 0.865576 8.38067 0.834885 8.44156C0.834885 8.49995 0.834886 8.53499 0.753136 8.59338C0.700202 8.72728 0.672486 8.86982 0.671387 9.0138C0.672486 9.15779 0.700202 9.30033 0.753136 9.43423C0.753136 9.49262 0.753136 9.52766 0.834885 9.58605C0.865576 9.64694 0.900706 9.70549 0.939992 9.76123L6.77923 16.7683C6.88904 16.9001 7.02654 17.0062 7.18196 17.0788C7.33739 17.1515 7.50691 17.189 7.67848 17.1887C7.95135 17.1893 8.21579 17.0942 8.4259 16.9201C8.54416 16.8221 8.64191 16.7017 8.71356 16.5658C8.78521 16.4299 8.82935 16.2813 8.84345 16.1283C8.85755 15.9753 8.84134 15.8211 8.79574 15.6744C8.75014 15.5277 8.67606 15.3915 8.57772 15.2735L4.33843 10.1817H18.1891C18.4988 10.1817 18.7959 10.0586 19.0149 9.8396C19.2339 9.62058 19.357 9.32354 19.357 9.0138C19.357 8.70407 19.2339 8.40703 19.0149 8.18801C18.7959 7.969 18.4988 7.84596 18.1891 7.84596Z" fill="#515151"/>
</svg>
