<svg width="24" height="24" viewBox="0 0 24 24" fill="none" xmlns="http://www.w3.org/2000/svg">
<path opacity="0.32" d="M12.1144 1.93457C8.00858 1.93457 4.68018 5.26297 4.68018 9.36877C4.68018 13.4746 8.00858 16.803 12.1144 16.803C16.2202 16.803 19.5486 13.4746 19.5486 9.36877C19.5486 5.26297 16.2202 1.93457 12.1144 1.93457Z" fill="#515151"/>
<path fill-rule="evenodd" clip-rule="evenodd" d="M18.4612 2.14026C18.7449 1.86211 19.2004 1.86663 19.4785 2.15037C21.3012 4.00965 22.4263 6.55854 22.4263 9.36876C22.4263 14.822 18.1933 19.2867 12.8338 19.656V21.1196H14.0329C14.4302 21.1196 14.7523 21.4417 14.7523 21.839C14.7523 22.2364 14.4302 22.5585 14.0329 22.5585H12.1144H10.1959C9.79854 22.5585 9.47643 22.2364 9.47643 21.839C9.47643 21.4417 9.79854 21.1196 10.1959 21.1196H11.3949V19.656C8.87055 19.4819 6.59525 18.3988 4.89598 16.7329C4.61224 16.4548 4.60771 15.9993 4.88587 15.7156C5.16401 15.4318 5.61951 15.4273 5.90325 15.7055C7.50447 17.2751 9.69581 18.2418 12.1144 18.2418C17.0148 18.2418 20.9874 14.2692 20.9874 9.36876C20.9874 6.9502 20.0207 4.75886 18.4511 3.15764C18.1729 2.8739 18.1774 2.4184 18.4612 2.14026Z" fill="#515151"/>
</svg>
