<svg width="26" height="26" viewBox="0 0 26 26" fill="none" xmlns="http://www.w3.org/2000/svg">
<path opacity="0.32" d="M13.0003 1.35449C6.56851 1.35449 1.35449 6.56851 1.35449 13.0003C1.35449 19.4322 6.56851 24.6462 13.0003 24.6462C19.4322 24.6462 24.6462 19.4322 24.6462 13.0003C24.6462 6.56851 19.4322 1.35449 13.0003 1.35449Z" fill="#1E1E26"/>
<path fill-rule="evenodd" clip-rule="evenodd" d="M8.39576 10.8337C8.39576 10.0858 9.00204 9.47949 9.74992 9.47949C10.4978 9.47949 11.1041 10.0858 11.1041 10.8337C11.1041 11.5816 10.4978 12.1878 9.74992 12.1878C9.00204 12.1878 8.39576 11.5816 8.39576 10.8337ZM14.8958 10.8337C14.8958 10.0858 15.502 9.47949 16.2499 9.47949C16.9978 9.47949 17.6041 10.0858 17.6041 10.8337C17.6041 11.5816 16.9978 12.1878 16.2499 12.1878C15.502 12.1878 14.8958 11.5816 14.8958 10.8337ZM8.17809 15.6007C8.53688 15.3312 9.04621 15.4036 9.31571 15.7624C10.1571 16.8825 11.494 17.6045 12.9998 17.6045C14.5056 17.6045 15.8425 16.8825 16.6839 15.7624C16.9534 15.4036 17.4627 15.3312 17.8215 15.6007C18.1803 15.8702 18.2527 16.3795 17.9832 16.7383C16.8481 18.2495 15.0382 19.2295 12.9998 19.2295C10.9613 19.2295 9.1515 18.2495 8.01642 16.7383C7.74692 16.3795 7.8193 15.8702 8.17809 15.6007Z" fill="#1E1E26"/>
</svg>
